<svg version="1.2" xmlns="http://www.w3.org/2000/svg" viewBox="0 0 400 400" width="400" height="400">
	<title>vecteezy_facebook-logo-on-transparent-isolated-background_12660856-svg</title>
	<style>
		.s0 { fill: #426cbe } 
		.s1 { fill: #ffffff } 
	</style>
	<g id="g10">
		<g id="g12">
			<g id="g14">
			</g>
			<g id="g18">
				<path id="path20" class="s0" d="m340.2 200c0-77.4-62.8-140.2-140.2-140.2-77.4 0-140.2 62.8-140.2 140.2 0 69.9 51.3 127.9 118.3 138.5v-98h-35.6v-40.5h35.6v-30.9c0-35.1 20.9-54.5 52.9-54.5 15.4 0 31.4 2.7 31.4 2.7v34.5h-17.7c-17.4 0-22.8 10.8-22.8 21.9v26.3h38.9l-6.3 40.5h-32.6v98c67-10.6 118.3-68.6 118.3-138.5z"/>
			</g>
			<path id="path22" class="s1" d="m254.5 240.5l6.3-40.5h-38.9v-26.3c0-11.1 5.4-21.9 22.8-21.9h17.7v-34.5c0 0-16-2.7-31.4-2.7-32 0-52.9 19.4-52.9 54.5v30.9h-35.6v40.5h35.6v98c7.1 1.1 14.4 1.7 21.9 1.7 7.4 0 14.7-0.6 21.9-1.7v-98z"/>
		</g>
	</g>
</svg>