<?xml version="1.0" standalone="no"?>
<!DOCTYPE svg PUBLIC "-//W3C//DTD SVG 20010904//EN"
 "http://www.w3.org/TR/2001/REC-SVG-20010904/DTD/svg10.dtd">
<svg version="1.0" xmlns="http://www.w3.org/2000/svg"
 width="400.000000pt" height="400.000000pt" viewBox="0 0 400.000000 400.000000"
 preserveAspectRatio="xMidYMid meet">

<g transform="translate(0.000000,400.000000) scale(0.100000,-0.100000)"
fill="#000000" stroke="none">
<path d="M1905 3383 c-112 -13 -228 -38 -308 -64 -247 -82 -479 -240 -639
-436 -54 -66 -168 -238 -168 -254 0 -4 102 -86 226 -183 l226 -175 49 97 c175
350 545 533 913 452 104 -23 231 -82 300 -139 26 -23 51 -41 55 -41 3 0 94 88
201 195 l195 196 -40 34 c-115 100 -295 201 -455 255 -155 52 -411 81 -555 63z"/>
<path d="M2040 1985 l0 -265 370 0 c423 0 385 11 346 -102 -39 -114 -99 -200
-201 -288 l-45 -39 217 -170 218 -171 61 64 c204 216 326 519 349 866 6 91 -8
319 -21 354 -6 15 -63 16 -650 16 l-644 0 0 -265z"/>
</g>
</svg>
