<svg xmlns="http://www.w3.org/2000/svg" width="50" height="50" viewBox="0 0 50 50" fill="none">
<path d="M16.3048 33.8134C20.4822 37.984 25.0579 41.7356 29.9664 45.0145C32.0618 46.4133 34.5761 47.0455 37.084 46.8041C39.5919 46.5628 41.9395 45.4628 43.7298 43.69L45.3033 42.1161C46.3034 41.1067 46.8645 39.7433 46.8645 38.3223C46.8645 36.9014 46.3034 35.538 45.3033 34.5286L41.4139 30.6392C40.8732 30.1127 40.2292 29.7039 39.5226 29.4387C38.8161 29.1735 38.0622 29.0576 37.3086 29.0983C36.555 29.139 35.818 29.3354 35.1441 29.6752C34.4702 30.0149 33.874 30.4906 33.3931 31.0723C33.0789 31.3898 32.6656 31.5904 32.2217 31.6406C31.7778 31.6908 31.33 31.5877 30.9528 31.3483C25.9901 28.212 21.7888 24.0089 18.6546 19.0448C18.4179 18.6685 18.3171 18.2225 18.369 17.781C18.4209 17.3395 18.6224 16.929 18.94 16.6179C19.5224 16.1376 19.9989 15.5416 20.3391 14.8676C20.6794 14.1937 20.876 13.4564 20.9166 12.7026C20.9573 11.9487 20.8409 11.1946 20.5751 10.488C20.3092 9.78135 19.8996 9.13762 19.3721 8.5975L15.4827 4.70765C14.4757 3.70293 13.1113 3.13867 11.6888 3.13867C10.2663 3.13867 8.90189 3.70293 7.8949 4.70765L6.32057 6.28233C4.55279 8.04649 3.44754 10.3664 3.19125 12.8506C2.93497 15.3349 3.54332 17.8316 4.91371 19.9195C8.23982 24.9177 12.0557 29.5719 16.3048 33.8134ZM7.42531 7.38708C8.57813 6.23371 9.89787 4.58154 11.6891 4.70087C12.1884 4.69992 12.683 4.79762 13.1444 4.98837C13.6059 5.17911 14.0251 5.45914 14.378 5.81237L18.2675 9.70221C18.6495 10.098 18.9436 10.5701 19.1305 11.0875C19.3175 11.6049 19.393 12.1559 19.3521 12.7045C19.3113 13.2531 19.155 13.7869 18.8935 14.2709C18.632 14.7549 18.2712 15.1782 17.8347 15.5131C17.2653 16.0742 16.9051 16.8132 16.8138 17.6074C16.7226 18.4016 16.9059 19.2031 17.3332 19.8787C20.5914 25.0393 24.959 29.4086 30.1182 32.669C30.7945 33.0999 31.598 33.2862 32.395 33.1966C33.1919 33.1071 33.9341 32.7472 34.4979 32.1769C34.8758 31.7101 35.3504 31.3308 35.8889 31.065C36.4274 30.7991 37.0172 30.6531 37.6175 30.6369C38.1171 30.6345 38.6121 30.7311 39.0741 30.9211C39.5361 31.1111 39.9559 31.3908 40.3092 31.744L44.1986 35.6334C44.5529 35.9857 44.8337 36.4048 45.0249 36.8663C45.2161 37.3279 45.3138 37.8228 45.3125 38.3224C45.4363 40.111 43.7576 41.4531 42.625 42.5853C41.0906 44.1032 39.0791 45.0447 36.9306 45.2505C34.782 45.4562 32.6284 44.9136 30.8338 43.7144C21.0821 37.1978 12.7154 28.817 6.21529 19.0543C5.04371 17.2673 4.52432 15.1309 4.74475 13.0054C4.96518 10.88 5.91193 8.89564 7.42531 7.38708Z" fill="white"></path>
<path d="M25.2663 5.35542C35.6875 5.13781 44.8723 14.3235 44.6551 24.7441C44.6585 24.9491 44.7423 25.1446 44.8885 25.2883C45.0346 25.4321 45.2315 25.5126 45.4365 25.5126C45.6415 25.5126 45.8383 25.432 45.9845 25.2882C46.1306 25.1444 46.2144 24.9489 46.2177 24.7439C46.4518 13.4844 36.5293 3.55985 25.2692 3.79309C25.064 3.79573 24.868 3.879 24.7237 4.0249C24.5794 4.1708 24.4983 4.36762 24.498 4.57283C24.4976 4.77804 24.578 4.97516 24.7217 5.12159C24.8655 5.26803 25.0611 5.35202 25.2663 5.35542Z" fill="white"></path>
<path d="M24.4865 17.4092C24.4866 17.6164 24.5689 17.8151 24.7154 17.9616C24.8619 18.1081 25.0606 18.1904 25.2678 18.1904C27.0031 18.1988 28.6649 18.8918 29.8919 20.1189C31.1189 21.3459 31.8119 23.0077 31.8202 24.743C31.8202 24.8456 31.8405 24.9472 31.8797 25.042C31.919 25.1368 31.9765 25.2229 32.0491 25.2954C32.1216 25.368 32.2078 25.4255 32.3026 25.4648C32.3974 25.504 32.499 25.5243 32.6016 25.5242C32.7042 25.5242 32.8057 25.504 32.9005 25.4648C32.9953 25.4255 33.0815 25.3679 33.154 25.2954C33.2265 25.2228 33.2841 25.1367 33.3234 25.0419C33.3626 24.9471 33.3828 24.8455 33.3828 24.7429C33.3825 22.5908 32.5275 20.5269 31.0057 19.0051C29.4839 17.4833 27.4199 16.6282 25.2678 16.6279C25.0606 16.6279 24.8619 16.7103 24.7154 16.8568C24.5689 17.0033 24.4866 17.202 24.4865 17.4092Z" fill="white"></path>
<path d="M38.2378 24.7439C38.2408 24.9491 38.3245 25.1449 38.4707 25.2889C38.6169 25.4329 38.8138 25.5136 39.0191 25.5136C39.2243 25.5136 39.4212 25.4329 39.5674 25.2889C39.7136 25.1448 39.7972 24.9491 39.8003 24.7439C39.9615 16.9318 33.0793 10.0493 25.2669 10.2108C25.0624 10.2148 24.8676 10.2989 24.7244 10.445C24.5811 10.591 24.5009 10.7875 24.5009 10.9921C24.5009 11.1966 24.5812 11.3931 24.7245 11.5391C24.8677 11.6852 25.0626 11.7692 25.2671 11.7732C28.7022 11.7892 31.9921 13.1609 34.4211 15.5899C36.8501 18.0189 38.2218 21.3088 38.2378 24.7439Z" fill="white"></path>
</svg>