<svg xmlns="http://www.w3.org/2000/svg" width="54" height="54" viewBox="0 0 54 54" fill="none">
<path d="M37.826 19.4148C36.5065 16.7104 34.2068 14.5995 31.3858 13.504C28.5654 12.4084 25.4314 12.4088 22.6112 13.5052C19.7908 14.6016 17.4914 16.7129 16.1723 19.4177C15.9182 19.9388 15.2866 20.1568 14.7612 19.9048C14.2357 19.6527 14.0159 19.026 14.27 18.5053C15.8207 15.3254 18.5238 12.8432 21.8396 11.5544C25.1549 10.2655 28.839 10.2648 32.1552 11.5527C35.4714 12.8407 38.1753 15.3221 39.7268 18.5012C39.9805 19.0214 39.7611 19.6474 39.2366 19.8994C38.712 20.1514 38.0808 19.9346 37.8258 19.4148L37.826 19.4148ZM51.9984 39.3548V41.1841L51.9988 41.1845C51.9967 42.8861 51.3142 44.5173 50.1008 45.7207C48.8874 46.9241 47.2427 47.6011 45.5269 47.6031C45.5048 47.6031 45.4868 47.5919 45.4651 47.5907C44.7892 48.4135 43.7991 48.9209 42.7311 48.9913C41.6632 49.0618 40.614 48.6891 39.8341 47.9621C39.0542 47.2354 38.6141 46.2198 38.6187 45.1586V35.3809C38.6199 34.3624 39.0283 33.3858 39.7543 32.6657C40.4803 31.9457 41.465 31.5407 42.492 31.5395C43.1056 31.5436 43.7096 31.6945 44.2525 31.9789V24.2064C44.2525 18.0934 40.9639 12.444 35.6259 9.38777C30.288 6.3314 23.7113 6.3314 18.373 9.38777C13.035 12.4446 9.74639 18.0934 9.74639 24.2064V31.9789C10.2893 31.6945 10.8933 31.5436 11.5069 31.5395C12.5339 31.5407 13.5186 31.9457 14.2446 32.6657C14.9706 33.3858 15.3791 34.3624 15.3803 35.3809V45.1586C15.3848 46.2206 14.9443 47.2366 14.1635 47.9633C13.3832 48.6904 12.3333 49.0626 11.2649 48.9914C10.1965 48.9197 9.20636 48.411 8.53085 47.587C6.78705 47.5463 5.12809 46.8313 3.90848 45.5948C2.68845 44.3583 2.00375 42.698 2 40.9681V39.5712C2.00418 37.9968 2.57347 36.475 3.60588 35.2787C4.63786 34.0827 6.06607 33.2898 7.63397 33.0427V24.2065C7.63397 19.1127 9.67406 14.2275 13.3059 10.6252C16.9377 7.0234 21.8636 5 27 5C32.1364 5 37.0619 7.02329 40.6941 10.6252C44.3258 14.2271 46.366 19.1124 46.366 24.2065V33.0208C47.92 33.2193 49.3479 33.9713 50.3845 35.1369C51.4211 36.3021 51.995 37.8011 52 39.3552L51.9984 39.3548ZM7.63334 35.1539C6.63145 35.391 5.73909 35.9556 5.1004 36.7568C4.46173 37.5586 4.11355 38.5498 4.1123 39.5712V40.9681C4.11356 41.9895 4.46173 42.9811 5.1004 43.7824C5.73907 44.5838 6.63149 45.1487 7.63334 45.3858V35.1539ZM9.74577 35.3811V45.1587C9.74577 45.7825 10.0814 46.3588 10.626 46.6709C11.1711 46.9826 11.8419 46.9826 12.3865 46.6709C12.9316 46.3588 13.2668 45.7825 13.2668 45.1587V35.3811C13.2668 34.7572 12.9316 34.1806 12.3865 33.8688C11.8419 33.5567 11.1711 33.5567 10.626 33.8688C10.0814 34.1806 9.74577 34.7572 9.74577 35.3811ZM44.2521 35.3811C44.2521 34.7572 43.9165 34.1806 43.3719 33.8688C42.8268 33.5567 42.156 33.5567 41.6114 33.8688C41.0663 34.1806 40.7311 34.7572 40.7311 35.3811V45.1587C40.7311 45.7825 41.0663 46.3588 41.6114 46.6709C42.156 46.9826 42.8268 46.9826 43.3719 46.6709C43.9165 46.3588 44.2521 45.7825 44.2521 45.1587V35.3811ZM49.8851 39.3552H49.8856C49.8843 38.3532 49.5324 37.3824 48.8904 36.6089C48.2483 35.8354 47.3559 35.3065 46.3646 35.112V45.4273C47.356 45.2333 48.2483 44.7043 48.8904 43.9308C49.5324 43.1568 49.8843 42.1863 49.8856 41.1845L49.8851 39.3552Z" fill="#DE3431"></path>
</svg>