<svg version="1.2" xmlns="http://www.w3.org/2000/svg" viewBox="0 0 576 512" width="576" height="512">
	<title>home-svg</title>
	<style>
		.s0 { fill: #000000 } 
	</style>
	<path fill-rule="evenodd" class="s0" d="m543 231.6q0.8 1.4 0.9 2.9 0.2 1.6-0.2 3.2-0.5 1.5-1.5 2.7l-10.1 12.4q-1 1.3-2.4 2-1.4 0.8-3 0.9-1.6 0.2-3.1-0.2-1.5-0.5-2.7-1.5l-40.9-33.4v243.1c0 2.1-0.4 4.2-1.2 6.1-0.8 1.9-2 3.7-3.5 5.2-1.5 1.5-3.2 2.6-5.2 3.5-1.9 0.8-4 1.2-6.1 1.2l-128 0.3c-2.1 0-4.2-0.4-6.1-1.2-2-0.8-3.7-2-5.2-3.5-1.5-1.5-2.7-3.2-3.5-5.2-0.8-1.9-1.2-4-1.2-6.1v-128.1l-64-0.3v128c0 2.1-0.4 4.2-1.2 6.1-0.8 2-2 3.7-3.5 5.2-1.5 1.5-3.2 2.7-5.2 3.5-1.9 0.8-4 1.2-6.1 1.2h-128c-2.1 0-4.2-0.4-6.1-1.2-2-0.8-3.7-2-5.2-3.5-1.5-1.5-2.7-3.2-3.5-5.2-0.8-1.9-1.2-4-1.2-6.1v-243l-40.9 33.4q-1.2 1-2.7 1.4-1.5 0.5-3.1 0.3-1.6-0.2-3-0.9-1.4-0.8-2.4-2l-10.1-12.4q-1-1.2-1.4-2.8-0.5-1.5-0.3-3.1 0.2-1.5 0.9-2.9 0.8-1.4 2-2.4l232.8-190.1c2.8-2.2 6.1-4 9.5-5.3 3.4-1.2 7.1-1.8 10.7-1.8 3.6 0 7.3 0.6 10.7 1.8 3.4 1.3 6.7 3.1 9.5 5.3l139.8 114.2v-51.4q0-1.2 0.5-2.3 0.4-1.1 1.3-1.9 0.8-0.9 1.9-1.3 1.1-0.5 2.3-0.5h20q1.2 0 2.3 0.5 1.1 0.4 1.9 1.3 0.9 0.8 1.3 1.9 0.5 1.1 0.5 2.3v77.4l61 49.9q1.2 1 2 2.4zm-95-37.1l-160-130.6-160 130.6v253.2h96v-128.1c0-2.1 0.4-4.2 1.2-6.1 0.8-2 2-3.7 3.5-5.2 1.5-1.5 3.3-2.7 5.2-3.5 1.9-0.8 4-1.2 6.1-1.2l96 0.3c2.1 0 4.2 0.4 6.1 1.2 2 0.8 3.7 2 5.2 3.5 1.5 1.5 2.7 3.2 3.5 5.2 0.8 1.9 1.2 4 1.2 6.1v128.2l96-0.3h-0.1z"/>
</svg>