<svg xmlns="http://www.w3.org/2000/svg" width="54" height="54" viewBox="0 0 54 54" fill="none">
<path d="M51.9993 26.9997C51.9993 39.7014 41.7289 50 29.0621 50C16.3954 50 6.12501 39.7014 6.12501 26.9997C6.12501 26.7938 6.1933 26.5878 6.26208 26.4504L4.0026 28.7161C3.79723 28.922 3.45479 29.0595 3.18112 29.0595C2.90745 29.0595 2.56501 28.922 2.35964 28.7161C1.88012 28.2352 1.88012 27.4805 2.35964 27.0682L6.53625 22.8801C6.67332 22.7426 6.80992 22.6741 6.94699 22.6056C7.28943 22.4682 7.70017 22.4682 8.0426 22.7431C8.1109 22.8116 8.17968 22.8116 8.24797 22.8805L12.4246 27.0687C12.9041 27.5495 12.9041 28.3042 12.4246 28.7166C12.2192 28.9225 11.8768 29.0599 11.6031 29.0599C11.3294 29.0599 10.987 28.9225 10.7816 28.7166L8.52214 26.4509C8.59044 26.5883 8.65922 26.7942 8.65922 27.0002C8.65922 38.3975 17.9028 47.6661 29.2684 47.6661C40.6344 47.6661 49.8776 38.3971 49.8776 27.0002C49.8776 15.6029 40.634 6.33424 29.2684 6.33424C23.6537 6.33424 18.4503 8.53153 14.5476 12.5822C14.068 13.063 13.3154 13.063 12.9042 12.5822C12.4247 12.1014 12.4247 11.3466 12.9042 10.9343C17.2862 6.4718 23.1062 4 29.3367 4C41.7296 3.99904 52 14.2977 52 26.9991L51.9993 26.9997ZM29.0621 14.5727C28.446 14.5727 27.8982 15.122 27.8982 15.7398V18.2115H27.3504C24.6119 18.2115 22.4206 20.4088 22.4206 23.1548C22.4206 25.9009 24.6119 28.0982 27.3504 28.0982H30.7739C32.212 28.0982 33.3758 29.2653 33.3758 30.7073C33.3758 32.1493 32.2119 33.3164 30.7739 33.3164H24.5435C23.9274 33.3164 23.3796 33.8657 23.3796 34.4835C23.3796 35.1013 23.9274 35.6506 24.5435 35.6506H27.8299V38.1223C27.8299 38.7401 28.3777 39.2894 28.9938 39.2894C29.6099 39.2894 30.1577 38.7401 30.1577 38.1223V35.6506H30.7051C33.4436 35.6506 35.6348 33.4533 35.6348 30.7073C35.6348 27.9612 33.4436 25.7639 30.7051 25.7639H27.2816C25.8435 25.7639 24.6797 24.5968 24.6797 23.1548C24.6797 21.7128 25.8436 20.5457 27.2816 20.5457H33.3754C33.9915 20.5457 34.5393 19.9964 34.5393 19.3786C34.5393 18.7608 33.9915 18.2115 33.3754 18.2115H30.2255V15.7398C30.2943 15.122 29.7465 14.5727 29.0621 14.5727Z" fill="#DE3431"></path>
</svg>