<svg xmlns="http://www.w3.org/2000/svg" width="16" height="17" viewBox="0 0 16 17" fill="none">
                                  <path d="M0.6875 6C0.335938 5.97656 0.148438 5.78906 0.125 5.4375V0.9375C0.148438 0.585938 0.335938 0.398438 0.6875 0.375C1.03906 0.398438 1.22656 0.585938 1.25 0.9375V4.20703C1.95312 3.03516 2.89062 2.10937 4.0625 1.42969C5.23438 0.75 6.54688 0.398438 8 0.375C9.47656 0.398438 10.8008 0.761719 11.9727 1.46484C13.168 2.14453 14.1055 3.08203 14.7852 4.27734C15.4883 5.44922 15.8516 6.77344 15.875 8.25C15.8516 9.72656 15.4883 11.0508 14.7852 12.2227C14.1055 13.418 13.168 14.3555 11.9727 15.0352C10.8008 15.7383 9.47656 16.1016 8 16.125C6.57031 16.1016 5.28125 15.7617 4.13281 15.1055C2.98438 14.4492 2.04688 13.5586 1.32031 12.4336C1.22656 12.2461 1.22656 12.0703 1.32031 11.9062C1.41406 11.7188 1.57812 11.625 1.8125 11.625C2.02344 11.625 2.19922 11.7188 2.33984 11.9062C2.94922 12.8438 3.74609 13.5938 4.73047 14.1562C5.71484 14.6953 6.80469 14.9766 8 15C9.92188 14.9531 11.5156 14.2969 12.7812 13.0312C14.0469 11.7656 14.7031 10.1719 14.75 8.25C14.7031 6.32812 14.0469 4.73438 12.7812 3.46875C11.5156 2.20312 9.92188 1.54687 8 1.5C6.73438 1.52344 5.59766 1.82812 4.58984 2.41406C3.55859 3.02344 2.75 3.84375 2.16406 4.875H5.1875C5.53906 4.89844 5.72656 5.08594 5.75 5.4375C5.72656 5.78906 5.53906 5.97656 5.1875 6H0.6875Z" fill="#9FA4AA"></path>
                                </svg>