<svg xmlns="http://www.w3.org/2000/svg" width="54" height="54" viewBox="0 0 54 54" fill="none">
<path d="M53.3218 8.83351L42.5219 4.51354C42.264 4.4102 41.9762 4.4102 41.7183 4.51354L30.9184 8.83351C30.7182 8.91374 30.5466 9.05208 30.4257 9.23071C30.3049 9.40933 30.2402 9.62006 30.2402 9.83574V20.9985C30.2458 23.0496 30.7795 25.0647 31.79 26.8496C32.8005 28.6345 34.2537 30.1291 36.0095 31.1893L41.565 34.5222C41.7327 34.6227 41.9246 34.6758 42.1201 34.6758C42.3156 34.6758 42.5075 34.6227 42.6752 34.5222L47.5201 31.6149V43.7108C47.5195 44.1803 47.3327 44.6305 47.0007 44.9625C46.6686 45.2946 46.2184 45.4814 45.7489 45.4819H3.9316C3.46202 45.4814 3.01185 45.2946 2.67981 44.9625C2.34777 44.6305 2.16098 44.1803 2.16041 43.7108V19.5557H27.0002C27.2866 19.5557 27.5613 19.4419 27.7639 19.2393C27.9664 19.0368 28.0802 18.7621 28.0802 18.4757C28.0802 18.1892 27.9664 17.9145 27.7639 17.712C27.5613 17.5095 27.2866 17.3957 27.0002 17.3957H2.16041V14.8469C2.16098 14.3773 2.34777 13.9272 2.67981 13.5951C3.01185 13.2631 3.46202 13.0763 3.9316 13.0757H27.0002C27.2866 13.0757 27.5613 12.9619 27.7639 12.7594C27.9664 12.5569 28.0802 12.2822 28.0802 11.9957C28.0802 11.7093 27.9664 11.4346 27.7639 11.2321C27.5613 11.0295 27.2866 10.9157 27.0002 10.9157H3.9316C2.88916 10.9163 1.88959 11.3307 1.15247 12.0678C0.415359 12.8049 0.000999541 13.8045 0.000427246 14.8469V43.7043C0.000999541 44.7467 0.415359 45.7463 1.15247 46.4834C1.88959 47.2205 2.88916 47.6349 3.9316 47.6355H45.7489C46.7913 47.6349 47.7909 47.2205 48.528 46.4834C49.2651 45.7463 49.6795 44.7467 49.68 43.7043V30.1396C51.0254 29.0241 52.1096 27.627 52.856 26.0468C53.6024 24.4666 53.993 22.7418 54 20.9942V9.83574C54 9.62006 53.9353 9.40933 53.8144 9.23071C53.6936 9.05208 53.522 8.91374 53.3218 8.83351ZM51.84 20.9985C51.8356 22.6768 51.3988 24.3257 50.5718 25.7861C49.7447 27.2465 48.5553 28.4691 47.1183 29.3361L42.1201 32.3363L37.1219 29.3361C35.6849 28.4691 34.4955 27.2465 33.6684 25.7861C32.8414 24.3257 32.4046 22.6768 32.4002 20.9985V10.5658L42.1201 6.67785L51.84 10.5658V20.9985Z" fill="#DE3431"></path>
<path d="M38.5649 17.8967C38.4646 17.7963 38.3456 17.7166 38.2145 17.6622C38.0834 17.6078 37.9429 17.5798 37.801 17.5797C37.6591 17.5796 37.5186 17.6074 37.3874 17.6616C37.2563 17.7158 37.1371 17.7953 37.0367 17.8956C36.9363 17.9959 36.8566 18.115 36.8022 18.246C36.7478 18.3771 36.7198 18.5176 36.7197 18.6595C36.7196 18.8014 36.7474 18.9419 36.8016 19.0731C36.8558 19.2042 36.9354 19.3234 37.0356 19.4238L39.917 22.3031C40.1196 22.5055 40.3942 22.6193 40.6806 22.6193C40.967 22.6193 41.2416 22.5055 41.4442 22.3031L47.2048 16.5424C47.4073 16.3396 47.521 16.0647 47.5208 15.7781C47.5206 15.4915 47.4065 15.2167 47.2037 15.0142C47.001 14.8117 46.726 14.698 46.4394 14.6982C46.1528 14.6984 45.8781 14.8125 45.6756 15.0153L40.6795 20.0135L38.5649 17.8967Z" fill="#DE3431"></path>
<path d="M7.56028 38.9956C7.27385 38.9956 6.99915 39.1094 6.79661 39.3119C6.59407 39.5145 6.48029 39.7892 6.48029 40.0756C6.48029 40.362 6.59407 40.6367 6.79661 40.8393C6.99915 41.0418 7.27385 41.1556 7.56028 41.1556H16.2002C16.4866 41.1556 16.7613 41.0418 16.9639 40.8393C17.1664 40.6367 17.2802 40.362 17.2802 40.0756C17.2802 39.7892 17.1664 39.5145 16.9639 39.3119C16.7613 39.1094 16.4866 38.9956 16.2002 38.9956H7.56028Z" fill="#DE3431"></path>
</svg>