<svg xmlns="http://www.w3.org/2000/svg" width="54" height="54" viewBox="0 0 54 54" fill="none">
<path d="M1.11597 38.0417H6.6605C6.55728 38.3613 6.48249 38.6895 6.4371 39.0226C6.23265 40.4822 6.67247 41.9586 7.64234 43.068C8.61421 44.1551 10.0099 44.7665 11.468 44.7435C12.9679 44.7051 14.4066 44.1371 15.5275 43.1399C16.649 42.1426 17.3806 40.7804 17.5935 39.2948C17.6409 38.8785 17.6409 38.4581 17.5935 38.0417H36.8169C36.7137 38.3614 36.6394 38.6895 36.5935 39.0226C36.3896 40.4822 36.8304 41.9586 37.8013 43.0681C38.7731 44.1551 40.1689 44.7665 41.6269 44.7435C43.1269 44.7051 44.5655 44.1372 45.6865 43.1399C46.8079 42.1426 47.5395 40.7804 47.7524 39.2949C47.7998 38.8785 47.7998 38.4581 47.7524 38.0418H49.3251C50.2102 38.0213 51.0594 37.6872 51.7207 37.0983C52.3819 36.5099 52.8127 35.7051 52.9354 34.8285L54 26.2213L49.1576 18.2803C48.5981 17.3568 47.5899 16.8003 46.5103 16.8193H37.1097L37.6447 12.472C37.7669 11.5889 37.4972 10.6964 36.9057 10.0291C36.3148 9.36142 35.4612 8.98594 34.5701 9.0004H6.64569C6.02837 9.0004 5.52872 9.50055 5.52872 10.1174C5.52872 10.7342 6.02837 11.2344 6.64569 11.2344H34.5701C34.8194 11.2259 35.0607 11.3256 35.2313 11.5081C35.3938 11.7006 35.4651 11.9544 35.4267 12.2037L32.5201 35.8078H16.788C16.6693 35.6123 16.5367 35.4258 16.3916 35.2493C15.4202 34.1617 14.0245 33.5503 12.5669 33.5738C10.7648 33.6107 9.0669 34.4255 7.91009 35.8078H1.11697C0.499651 35.8078 0 36.3079 0 36.9247C0 37.5416 0.499651 38.0417 1.11697 38.0417L1.11597 38.0417ZM45.5345 39.0226C45.3999 39.9715 44.9337 40.8426 44.2182 41.4809C43.5031 42.1192 42.5846 42.4837 41.6261 42.5096C40.8094 42.5296 40.0239 42.1935 39.4735 41.5891C38.9325 40.9559 38.6921 40.1191 38.8158 39.2948C38.9504 38.3459 39.4167 37.4747 40.1322 36.8364C40.8472 36.1982 41.7658 35.8337 42.7242 35.8077C43.541 35.7878 44.3259 36.1234 44.8754 36.7282C45.4179 37.361 45.6583 38.1983 45.5346 39.0226H45.5345ZM51.3907 29.1059H43.8421L44.5277 23.521H49.7362L51.6863 26.7189L51.3907 29.1059ZM46.5094 19.0531C46.8046 19.0391 47.0844 19.1837 47.2434 19.4331L48.3749 21.287H43.5395C42.9755 21.2875 42.5003 21.7079 42.4315 22.2678L41.4721 30.0867C41.4332 30.4038 41.5319 30.7229 41.7438 30.9628C41.9558 31.2021 42.2599 31.3398 42.5801 31.3398H51.1149L50.7205 34.5601C50.6098 35.2547 50.0268 35.7758 49.3242 35.8077H46.9451C46.8264 35.6122 46.6938 35.4257 46.5487 35.2492C45.5773 34.1617 44.1816 33.5503 42.724 33.5738C40.9219 33.6107 39.224 34.4255 38.0672 35.8077H34.7712L36.833 19.0531H46.5094ZM12.5662 35.8077C13.3829 35.7878 14.1678 36.1234 14.7174 36.7282C15.2599 37.361 15.5003 38.1983 15.3766 39.0225C15.242 39.9715 14.7757 40.8426 14.0602 41.4809C13.3452 42.1192 12.4267 42.4837 11.4682 42.5096C10.6514 42.5296 9.86604 42.1935 9.31559 41.5891C8.77456 40.9558 8.53421 40.1191 8.65788 39.2948C8.79252 38.3459 9.25875 37.4747 9.97425 36.8364C10.6893 36.1982 11.6078 35.8336 12.5663 35.8077H12.5662Z" fill="#DE3431"></path>
<path d="M5.70641 17.9362H17.9931C18.61 17.9362 19.1101 17.436 19.1101 16.8192C19.1101 16.2024 18.61 15.7022 17.9931 15.7022H5.70641C5.08959 15.7022 4.58944 16.2024 4.58944 16.8192C4.58944 17.436 5.08959 17.9362 5.70641 17.9362Z" fill="#DE3431"></path>
<path d="M2.35549 24.638H14.6422C15.259 24.638 15.7592 24.1379 15.7592 23.521C15.7592 22.9042 15.259 22.4041 14.6422 22.4041H2.35549C1.73866 22.4041 1.23851 22.9042 1.23851 23.521C1.23851 24.1379 1.73866 24.638 2.35549 24.638Z" fill="#DE3431"></path>
<path d="M17.9931 29.1059H5.43259C4.81577 29.1059 4.31562 29.6061 4.31562 30.2229C4.31562 30.8397 4.81577 31.3399 5.43259 31.3399H17.9931C18.61 31.3399 19.1101 30.8397 19.1101 30.2229C19.1101 29.6061 18.61 29.1059 17.9931 29.1059Z" fill="#DE3431"></path>
</svg>