<svg xmlns="http://www.w3.org/2000/svg" width="21" height="18" viewBox="0 0 21 18" fill="none">
                                  <path d="M8.4375 1.5V4.875H14.2734L13.0781 2.16797C12.8672 1.74609 12.5156 1.52344 12.0234 1.5H8.4375ZM8.4375 6H7.3125H1.125V13.875C1.125 14.2031 1.23047 14.4727 1.44141 14.6836C1.65234 14.8945 1.92188 15 2.25 15H9.66797C9.87891 15.3984 10.125 15.7734 10.4062 16.125H2.25C1.61719 16.1016 1.08984 15.8789 0.667969 15.457C0.246094 15.0352 0.0234375 14.5078 0 13.875V5.92969C0 5.60156 0.0703125 5.29688 0.210938 5.01562L1.65234 1.71094C2.07422 0.867188 2.76562 0.421875 3.72656 0.375H12.0234C12.9844 0.421875 13.6758 0.867188 14.0977 1.71094L15.5742 5.01562C15.6914 5.29688 15.75 5.60156 15.75 5.92969V6H15.1875H14.625H12.375H8.4375ZM7.3125 4.875V1.5H3.72656C3.23438 1.52344 2.88281 1.74609 2.67188 2.16797L1.47656 4.875H7.3125ZM15.1875 8.25C14.4844 8.25 13.8281 8.42578 13.2188 8.77734C12.6094 9.12891 12.1289 9.60938 11.7773 10.2188C11.4258 10.8281 11.25 11.4844 11.25 12.1875C11.25 12.8906 11.4258 13.5469 11.7773 14.1562C12.1289 14.7656 12.6094 15.2461 13.2188 15.5977C13.8281 15.9492 14.4844 16.125 15.1875 16.125C15.8906 16.125 16.5469 15.9492 17.1562 15.5977C17.7656 15.2461 18.2461 14.7656 18.5977 14.1562C18.9492 13.5469 19.125 12.8906 19.125 12.1875C19.125 11.4844 18.9492 10.8281 18.5977 10.2188C18.2461 9.60938 17.7656 9.12891 17.1562 8.77734C16.5469 8.42578 15.8906 8.25 15.1875 8.25ZM15.1875 17.25C14.2734 17.25 13.4297 17.0273 12.6562 16.582C11.8828 16.1367 11.2617 15.5156 10.793 14.7188C10.3477 13.9219 10.125 13.0781 10.125 12.1875C10.125 11.2969 10.3477 10.4531 10.793 9.65625C11.2617 8.85938 11.8828 8.23828 12.6562 7.79297C13.4297 7.34766 14.2734 7.125 15.1875 7.125C16.1016 7.125 16.9453 7.34766 17.7188 7.79297C18.4922 8.23828 19.1133 8.85938 19.582 9.65625C20.0273 10.4531 20.25 11.2969 20.25 12.1875C20.25 13.0781 20.0273 13.9219 19.582 14.7188C19.1133 15.5156 18.4922 16.1367 17.7188 16.582C16.9453 17.0273 16.1016 17.25 15.1875 17.25ZM17.543 10.6758C17.7773 10.9336 17.7773 11.1914 17.543 11.4492L15.0117 13.9805C14.7539 14.2148 14.4961 14.2148 14.2383 13.9805L12.832 12.5742C12.5977 12.3164 12.5977 12.0586 12.832 11.8008C13.0898 11.5664 13.3477 11.5664 13.6055 11.8008L14.625 12.7852L16.7695 10.6758C17.0273 10.4414 17.2852 10.4414 17.543 10.6758Z" fill="#9FA4AA"></path>
                                </svg>